<svg xmlns="http://www.w3.org/2000/svg" viewBox="0 0 37 37" shape-rendering="crispEdges" width="100%" height="100%"><rect width="37" height="37" fill="#fff"/><path d="M2 2h7v1h-7zM11 2h1v1h-1zM13 2h2v1h-2zM18 2h1v1h-1zM20 2h2v1h-2zM23 2h1v1h-1zM25 2h1v1h-1zM28 2h7v1h-7zM2 3h1v1h-1zM8 3h1v1h-1zM11 3h1v1h-1zM13 3h2v1h-2zM17 3h1v1h-1zM20 3h1v1h-1zM22 3h3v1h-3zM26 3h1v1h-1zM28 3h1v1h-1zM34 3h1v1h-1zM2 4h1v1h-1zM4 4h3v1h-3zM8 4h1v1h-1zM10 4h2v1h-2zM16 4h1v1h-1zM18 4h1v1h-1zM22 4h2v1h-2zM26 4h1v1h-1zM28 4h1v1h-1zM30 4h3v1h-3zM34 4h1v1h-1zM2 5h1v1h-1zM4 5h3v1h-3zM8 5h1v1h-1zM10 5h3v1h-3zM20 5h1v1h-1zM24 5h2v1h-2zM28 5h1v1h-1zM30 5h3v1h-3zM34 5h1v1h-1zM2 6h1v1h-1zM4 6h3v1h-3zM8 6h1v1h-1zM10 6h10v1h-10zM22 6h1v1h-1zM25 6h1v1h-1zM28 6h1v1h-1zM30 6h3v1h-3zM34 6h1v1h-1zM2 7h1v1h-1zM8 7h1v1h-1zM10 7h1v1h-1zM13 7h2v1h-2zM19 7h1v1h-1zM21 7h1v1h-1zM23 7h2v1h-2zM28 7h1v1h-1zM34 7h1v1h-1zM2 8h7v1h-7zM10 8h1v1h-1zM12 8h1v1h-1zM14 8h1v1h-1zM16 8h1v1h-1zM18 8h1v1h-1zM20 8h1v1h-1zM22 8h1v1h-1zM24 8h1v1h-1zM26 8h1v1h-1zM28 8h7v1h-7zM10 9h1v1h-1zM12 9h1v1h-1zM16 9h1v1h-1zM18 9h1v1h-1zM20 9h5v1h-5zM26 9h1v1h-1zM2 10h1v1h-1zM4 10h5v1h-5zM13 10h1v1h-1zM15 10h2v1h-2zM19 10h1v1h-1zM21 10h1v1h-1zM24 10h1v1h-1zM28 10h5v1h-5zM5 11h2v1h-2zM10 11h6v1h-6zM19 11h4v1h-4zM25 11h1v1h-1zM28 11h2v1h-2zM31 11h4v1h-4zM2 12h1v1h-1zM4 12h3v1h-3zM8 12h3v1h-3zM15 12h3v1h-3zM19 12h1v1h-1zM22 12h2v1h-2zM27 12h1v1h-1zM30 12h1v1h-1zM32 12h2v1h-2zM2 13h2v1h-2zM7 13h1v1h-1zM9 13h2v1h-2zM12 13h4v1h-4zM19 13h2v1h-2zM22 13h3v1h-3zM30 13h4v1h-4zM3 14h2v1h-2zM6 14h1v1h-1zM8 14h1v1h-1zM10 14h2v1h-2zM13 14h1v1h-1zM16 14h3v1h-3zM21 14h2v1h-2zM24 14h1v1h-1zM26 14h2v1h-2zM29 14h3v1h-3zM5 15h1v1h-1zM7 15h1v1h-1zM9 15h4v1h-4zM14 15h2v1h-2zM17 15h1v1h-1zM20 15h1v1h-1zM23 15h1v1h-1zM25 15h1v1h-1zM28 15h1v1h-1zM32 15h3v1h-3zM4 16h1v1h-1zM8 16h1v1h-1zM10 16h5v1h-5zM17 16h3v1h-3zM22 16h2v1h-2zM26 16h3v1h-3zM31 16h1v1h-1zM33 16h1v1h-1zM4 17h3v1h-3zM9 17h6v1h-6zM16 17h2v1h-2zM23 17h3v1h-3zM27 17h2v1h-2zM30 17h3v1h-3zM4 18h1v1h-1zM6 18h1v1h-1zM8 18h1v1h-1zM10 18h5v1h-5zM17 18h1v1h-1zM19 18h1v1h-1zM24 18h4v1h-4zM29 18h3v1h-3zM34 18h1v1h-1zM3 19h1v1h-1zM5 19h2v1h-2zM10 19h2v1h-2zM13 19h4v1h-4zM18 19h1v1h-1zM20 19h3v1h-3zM24 19h2v1h-2zM28 19h2v1h-2zM31 19h2v1h-2zM34 19h1v1h-1zM2 20h2v1h-2zM5 20h5v1h-5zM12 20h2v1h-2zM15 20h1v1h-1zM17 20h2v1h-2zM20 20h1v1h-1zM24 20h1v1h-1zM26 20h1v1h-1zM28 20h3v1h-3zM32 20h2v1h-2zM2 21h1v1h-1zM5 21h1v1h-1zM7 21h1v1h-1zM9 21h1v1h-1zM11 21h2v1h-2zM16 21h3v1h-3zM21 21h1v1h-1zM23 21h2v1h-2zM27 21h1v1h-1zM29 21h6v1h-6zM2 22h2v1h-2zM5 22h2v1h-2zM8 22h4v1h-4zM14 22h4v1h-4zM20 22h1v1h-1zM24 22h1v1h-1zM26 22h2v1h-2zM29 22h3v1h-3zM33 22h2v1h-2zM2 23h4v1h-4zM10 23h1v1h-1zM15 23h5v1h-5zM22 23h2v1h-2zM25 23h1v1h-1zM27 23h3v1h-3zM31 23h2v1h-2zM34 23h1v1h-1zM2 24h1v1h-1zM6 24h3v1h-3zM10 24h1v1h-1zM20 24h2v1h-2zM30 24h1v1h-1zM32 24h2v1h-2zM2 25h1v1h-1zM5 25h2v1h-2zM11 25h1v1h-1zM13 25h1v1h-1zM15 25h2v1h-2zM18 25h1v1h-1zM21 25h4v1h-4zM26 25h3v1h-3zM30 25h4v1h-4zM2 26h1v1h-1zM5 26h2v1h-2zM8 26h2v1h-2zM11 26h1v1h-1zM14 26h3v1h-3zM18 26h2v1h-2zM21 26h2v1h-2zM24 26h8v1h-8zM10 27h1v1h-1zM13 27h1v1h-1zM15 27h2v1h-2zM18 27h2v1h-2zM21 27h2v1h-2zM24 27h1v1h-1zM26 27h1v1h-1zM30 27h1v1h-1zM32 27h1v1h-1zM34 27h1v1h-1zM2 28h7v1h-7zM11 28h1v1h-1zM14 28h1v1h-1zM17 28h1v1h-1zM19 28h1v1h-1zM22 28h1v1h-1zM24 28h3v1h-3zM28 28h1v1h-1zM30 28h1v1h-1zM32 28h1v1h-1zM2 29h1v1h-1zM8 29h1v1h-1zM10 29h4v1h-4zM16 29h2v1h-2zM19 29h2v1h-2zM22 29h2v1h-2zM25 29h2v1h-2zM30 29h5v1h-5zM2 30h1v1h-1zM4 30h3v1h-3zM8 30h1v1h-1zM10 30h4v1h-4zM15 30h1v1h-1zM18 30h1v1h-1zM26 30h6v1h-6zM33 30h2v1h-2zM2 31h1v1h-1zM4 31h3v1h-3zM8 31h1v1h-1zM10 31h2v1h-2zM14 31h2v1h-2zM17 31h1v1h-1zM20 31h1v1h-1zM23 31h1v1h-1zM25 31h1v1h-1zM27 31h1v1h-1zM30 31h1v1h-1zM32 31h3v1h-3zM2 32h1v1h-1zM4 32h3v1h-3zM8 32h1v1h-1zM10 32h1v1h-1zM13 32h1v1h-1zM15 32h4v1h-4zM22 32h4v1h-4zM28 32h2v1h-2zM2 33h1v1h-1zM8 33h1v1h-1zM15 33h1v1h-1zM17 33h1v1h-1zM20 33h4v1h-4zM27 33h1v1h-1zM30 33h3v1h-3zM2 34h7v1h-7zM10 34h1v1h-1zM13 34h1v1h-1zM16 34h2v1h-2zM19 34h1v1h-1zM21 34h1v1h-1zM24 34h3v1h-3zM28 34h2v1h-2zM33 34h1v1h-1z" fill="#241f52"/></svg>